<?xml version="1.0" standalone="no"?>
<!DOCTYPE svg PUBLIC "-//W3C//DTD SVG 20010904//EN"
 "http://www.w3.org/TR/2001/REC-SVG-20010904/DTD/svg10.dtd">
<svg version="1.0" xmlns="http://www.w3.org/2000/svg"
 width="2400.000000pt" height="2400.000000pt" viewBox="0 0 2400.000000 2400.000000"
 preserveAspectRatio="xMidYMid meet">
<metadata>
Created by potrace 1.11, written by Peter Selinger 2001-2013
</metadata>
<g transform="translate(0.000000,2400.000000) scale(0.100000,-0.100000)"
fill="#000000" stroke="none">
<path d="M10685 22649 c-71 -10 -98 -16 -163 -34 -31 -10 -65 -19 -74 -20 -9
-2 -25 -8 -35 -13 -20 -11 -58 -17 -163 -27 -36 -4 -76 -8 -90 -10 -14 -2 -60
-6 -103 -10 -43 -3 -87 -8 -97 -10 -10 -2 -43 -6 -72 -9 -67 -8 -101 -12 -158
-21 -25 -4 -56 -8 -70 -10 -89 -9 -182 -23 -335 -50 -44 -7 -102 -16 -130 -20
-27 -3 -66 -10 -85 -15 -19 -5 -57 -11 -84 -15 -27 -3 -52 -8 -55 -10 -3 -1
-24 -6 -46 -9 -33 -5 -109 -19 -230 -42 -39 -7 -171 -37 -265 -60 -52 -13
-111 -26 -130 -29 -19 -3 -48 -10 -65 -15 -16 -5 -42 -11 -56 -14 -14 -2 -97
-23 -185 -46 -87 -23 -188 -44 -223 -45 -94 -5 -157 -22 -236 -64 -38 -21 -90
-43 -115 -50 -177 -51 -772 -252 -875 -296 -16 -7 -46 -18 -65 -25 -19 -7 -48
-19 -65 -25 -16 -7 -46 -18 -65 -25 -19 -7 -60 -23 -90 -36 -268 -112 -346
-146 -490 -211 -271 -123 -719 -351 -882 -448 -9 -5 -52 -30 -95 -55 -105 -60
-100 -57 -211 -124 -95 -58 -424 -275 -512 -337 -25 -18 -58 -42 -75 -53 -72
-50 -150 -110 -153 -118 -2 -4 -8 -8 -14 -8 -5 0 -15 -6 -22 -12 -7 -7 -25
-22 -40 -33 -73 -53 -336 -268 -392 -320 -6 -5 -46 -41 -90 -80 -89 -78 -435
-422 -506 -503 -36 -40 -58 -56 -96 -67 -98 -30 -219 -179 -344 -426 -37 -75
-68 -139 -68 -142 0 -3 -34 -58 -75 -121 -41 -63 -75 -120 -75 -126 0 -5 -3
-10 -7 -10 -5 0 -13 -10 -19 -23 -6 -12 -43 -79 -82 -149 -111 -201 -213 -421
-286 -620 l-17 -47 -62 5 c-34 3 -78 7 -97 10 -19 3 -145 7 -280 9 -253 4
-365 -6 -411 -39 -29 -20 -67 -74 -79 -112 -16 -47 -2 -67 78 -109 106 -56
189 -142 230 -241 35 -83 44 -150 47 -349 1 -88 6 -172 9 -186 11 -37 54 -58
148 -69 46 -6 106 -15 133 -21 l50 -11 0 -202 c0 -110 3 -226 7 -256 11 -91
19 -144 23 -157 2 -6 -39 -44 -91 -83 -112 -86 -149 -129 -140 -165 7 -29 59
-84 81 -86 8 -1 21 -2 28 -3 6 -1 20 2 30 6 15 8 17 1 17 -75 0 -160 39 -195
219 -198 l82 -1 22 -40 c29 -53 38 -67 65 -106 13 -17 19 -32 13 -32 -30 0
-247 96 -346 153 -58 33 -207 137 -225 157 -3 3 -18 15 -35 27 l-30 21 2 -122
2 -121 56 -111 c63 -125 65 -153 14 -175 -22 -9 -129 -12 -394 -12 -200 0
-370 -4 -377 -9 -19 -12 198 -218 313 -299 124 -85 124 -89 21 -188 -116 -112
-145 -137 -282 -246 -126 -101 -169 -142 -182 -177 -16 -41 64 -86 167 -94 52
-4 111 23 155 71 163 176 193 180 525 70 233 -76 361 -136 431 -198 51 -46
106 -138 87 -144 -6 -2 -22 -13 -35 -25 -12 -11 -39 -32 -58 -47 -57 -43 -159
-131 -225 -195 -22 -21 -58 -50 -80 -64 -50 -32 -195 -104 -257 -127 -27 -10
-48 -22 -48 -26 0 -9 28 -13 60 -11 8 1 78 4 155 8 l140 6 -55 -58 c-70 -73
-77 -81 -180 -194 -47 -51 -94 -103 -105 -114 -11 -12 -51 -57 -90 -101 -38
-44 -72 -82 -75 -85 -12 -12 -78 -89 -115 -134 -22 -27 -47 -56 -56 -65 -9 -9
-65 -74 -124 -146 -59 -71 -114 -139 -124 -150 -79 -95 -373 -470 -409 -522
-33 -46 -33 -46 -46 -309 l-3 -71 111 56 c171 87 393 175 516 205 8 2 35 9 60
16 81 22 301 64 385 74 268 32 690 23 920 -19 6 -1 20 -3 33 -3 l24 -2 -4
-166 -3 -166 -125 -83 c-171 -114 -274 -213 -255 -245 6 -9 102 -63 115 -65
14 -1 119 -67 142 -90 68 -64 75 -137 22 -226 -71 -118 -270 -286 -471 -395
-113 -62 -308 -155 -354 -169 -13 -4 -80 -34 -148 -67 -128 -62 -181 -104
-181 -146 0 -31 73 -101 142 -134 94 -46 146 -53 378 -49 103 2 151 -9 217
-53 21 -14 65 -34 98 -45 54 -17 96 -25 235 -47 25 -4 50 -8 55 -9 6 -1 16 -3
23 -3 27 -4 -8 -40 -45 -47 -21 -5 -42 -9 -48 -11 -5 -1 -95 -23 -200 -49
-104 -25 -203 -50 -220 -55 -29 -9 -249 -70 -270 -75 -5 -1 -17 -5 -25 -8 -41
-17 -434 -108 -498 -115 -105 -12 -220 -6 -267 15 -22 10 -65 36 -95 58 -71
52 -99 64 -127 54 -26 -10 -25 -2 -28 -174 -3 -204 15 -244 187 -411 51 -50
120 -124 153 -165 33 -41 63 -76 67 -79 13 -10 40 -93 45 -137 6 -48 -24 -158
-63 -235 -26 -51 -31 -97 -11 -99 47 -4 72 2 347 89 199 62 202 63 152 5 -15
-17 -45 -54 -67 -83 -47 -60 -48 -61 -162 -101 -158 -56 -229 -102 -204 -133
7 -8 44 -23 82 -33 l70 -18 -6 -50 c-5 -51 -15 -265 -12 -265 1 0 66 32 144
70 78 38 146 70 150 70 4 0 41 14 82 30 40 17 75 30 77 30 3 0 -33 -30 -78
-67 -81 -65 -108 -88 -176 -152 -18 -17 -34 -31 -36 -31 -4 0 -130 -125 -196
-196 -232 -247 -404 -509 -508 -774 -26 -67 -59 -170 -67 -210 -2 -8 -8 -33
-13 -55 -11 -40 -15 -67 -31 -200 -12 -105 -6 -280 15 -410 30 -194 108 -408
223 -610 39 -69 154 -244 185 -283 6 -7 16 -18 21 -25 6 -7 34 -41 64 -77 260
-317 704 -678 1196 -972 67 -41 244 -141 266 -151 8 -4 55 -29 104 -55 50 -26
113 -60 140 -75 49 -25 251 -122 350 -167 28 -12 88 -40 134 -61 46 -22 87
-39 92 -39 4 0 36 -13 71 -29 35 -16 106 -46 158 -66 52 -21 109 -43 125 -50
49 -21 291 -111 305 -113 3 -1 23 -8 45 -18 48 -20 402 -143 429 -149 11 -3
60 -18 110 -34 50 -16 145 -46 211 -66 66 -20 140 -42 165 -50 53 -17 264 -76
370 -104 41 -11 90 -24 108 -30 17 -5 32 -7 32 -3 0 3 5 1 12 -6 7 -7 20 -12
30 -12 10 0 66 -13 126 -30 60 -16 120 -31 133 -34 13 -2 62 -13 109 -25 102
-24 176 -41 210 -47 14 -3 50 -11 80 -19 30 -8 111 -26 180 -41 69 -14 133
-28 143 -30 42 -10 57 -13 88 -18 35 -6 66 -12 109 -21 29 -7 114 -24 150 -30
25 -5 51 -10 100 -20 14 -2 39 -7 55 -10 28 -5 46 -8 105 -20 14 -2 39 -7 55
-9 41 -7 314 -54 345 -61 14 -3 45 -7 70 -10 25 -3 83 -12 130 -20 47 -8 105
-17 130 -21 25 -3 56 -8 70 -11 14 -2 43 -5 65 -8 22 -2 56 -6 75 -10 19 -3
55 -8 80 -11 25 -2 52 -6 60 -8 14 -4 79 -14 145 -21 17 -2 46 -6 65 -9 19 -3
79 -10 134 -16 54 -7 106 -13 115 -15 9 -1 45 -6 81 -10 36 -4 79 -9 95 -12
17 -2 50 -5 75 -7 57 -5 180 -18 203 -22 9 -1 56 -6 105 -9 48 -4 90 -9 93
-10 3 -2 39 -6 80 -10 41 -3 94 -8 119 -10 25 -3 83 -7 130 -11 47 -3 101 -7
120 -9 19 -2 71 -6 115 -10 44 -3 100 -8 125 -10 85 -7 205 -15 290 -20 47 -3
132 -7 190 -10 58 -3 128 -8 155 -10 45 -3 108 -6 415 -20 336 -16 647 -20
1360 -20 715 1 962 4 1270 20 41 2 140 6 220 10 143 6 211 9 380 20 47 3 130
7 185 10 55 3 126 8 157 10 31 3 85 7 120 10 60 4 154 12 243 20 22 2 76 6
120 10 44 3 103 8 130 10 28 3 82 7 120 10 39 3 81 8 95 10 14 2 57 7 95 11
39 3 77 8 85 9 8 1 49 6 90 9 94 9 168 16 200 21 14 2 48 6 75 9 91 11 130 16
150 20 11 2 54 7 95 11 41 4 82 8 90 10 8 1 40 6 70 10 30 3 66 8 80 10 14 3
45 7 70 10 25 3 72 10 105 15 33 5 83 12 110 15 28 4 61 8 75 11 14 2 48 7 75
10 28 3 53 7 56 9 3 2 28 7 55 10 27 4 56 8 64 11 8 2 38 6 65 9 28 3 57 8 65
10 8 2 31 7 50 10 19 3 46 7 60 10 14 3 41 7 60 10 19 3 49 8 65 11 17 3 44 7
60 10 17 2 89 16 160 30 72 14 144 27 160 30 17 2 41 6 55 9 14 3 34 7 45 9
15 3 320 66 440 90 50 11 395 89 445 101 8 2 53 13 100 25 47 11 96 23 110 26
14 3 48 12 77 20 29 8 65 17 80 20 15 3 69 17 118 31 50 14 97 26 105 28 40 8
522 148 567 165 29 11 63 22 75 24 71 14 694 226 793 270 43 19 109 40 118 38
4 -1 7 3 7 8 0 6 8 10 18 10 9 1 35 9 57 20 22 11 43 19 48 20 4 0 26 8 50 19
23 10 94 40 157 66 63 26 143 60 178 76 35 16 65 29 67 29 2 0 52 23 112 52
59 28 110 52 113 53 21 5 206 99 208 106 2 5 11 9 21 9 9 0 25 6 36 14 11 7
52 30 90 50 84 44 177 95 225 124 19 11 68 40 109 64 40 24 81 48 90 53 206
130 360 237 519 359 42 33 79 62 82 66 3 3 15 13 26 21 68 46 347 314 456 438
27 29 74 88 105 130 32 42 64 82 71 89 6 7 12 17 12 22 0 5 6 15 14 23 8 8 33
45 55 83 23 38 46 76 51 84 22 35 110 221 110 233 0 7 4 17 8 22 26 29 95 280
109 395 10 81 10 367 0 436 -19 136 -60 282 -122 439 -5 11 -9 22 -10 25 -13
44 -131 255 -196 352 -148 218 -404 494 -635 683 -20 17 -51 42 -68 56 -93 76
-308 234 -382 279 -33 20 -30 30 9 31 99 5 131 -9 222 -91 42 -38 92 -74 112
-81 70 -23 223 17 223 59 0 23 -60 80 -155 147 -119 83 -227 167 -222 171 2 3
35 -11 72 -31 37 -19 69 -35 70 -35 2 0 5 77 7 231 1 30 -8 63 -23 93 l-23 47
34 27 c64 49 125 110 117 118 -4 4 -58 7 -120 6 l-112 0 -75 130 c-41 72 -84
147 -95 167 -11 20 -47 80 -80 134 -33 54 -66 110 -74 125 -8 15 -17 29 -21
32 -4 3 -13 16 -20 30 -7 14 -56 90 -109 170 -53 79 -105 159 -116 176 -11 18
-62 91 -113 163 -51 73 -90 135 -88 140 15 24 187 66 317 76 49 4 96 30 105
57 4 13 9 88 10 168 2 80 5 154 8 165 2 11 5 28 5 37 1 12 8 15 24 13 12 -3
94 -16 182 -30 182 -29 357 -61 495 -90 8 -2 51 -11 95 -20 44 -9 140 -32 213
-51 74 -19 137 -32 140 -30 4 2 8 69 10 148 3 160 15 122 -95 328 -128 240
-470 831 -493 850 -3 3 -17 23 -30 45 -94 158 -422 634 -597 867 l-103 137 15
41 c10 30 13 72 11 148 -4 111 -5 118 -24 165 -7 16 -12 31 -12 33 0 3 -12 29
-26 58 l-26 53 26 38 c25 36 49 102 42 114 -2 3 -7 48 -11 100 -4 52 -8 101
-10 110 -1 9 -6 60 -10 114 l-7 99 28 -5 c16 -3 45 -8 64 -11 19 -3 49 -8 65
-11 112 -19 523 -25 755 -11 258 16 273 17 409 31 167 17 272 45 300 79 30 36
-37 83 -229 161 -63 25 -124 50 -135 54 -11 5 -63 26 -115 46 -52 21 -138 59
-190 86 -106 54 -161 78 -244 109 -31 12 -56 23 -56 25 0 5 217 -2 280 -9 68
-8 75 -9 180 -36 134 -34 139 -35 245 -75 253 -94 314 -111 340 -91 20 14 16
38 -20 126 -46 113 -62 181 -61 260 1 63 6 86 33 140 38 76 144 220 222 301
114 117 164 182 199 256 26 56 27 64 29 243 2 200 -4 232 -46 238 -23 4 -72
-25 -126 -73 -50 -46 -98 -72 -150 -83 -73 -16 -236 -7 -335 18 -19 5 -57 14
-85 21 -58 13 -77 19 -205 57 -52 16 -129 39 -170 52 -41 12 -82 24 -90 28 -8
3 -19 6 -25 8 -5 1 -100 29 -210 62 -110 33 -256 74 -325 92 -69 17 -133 34
-142 37 -19 5 -23 29 -9 51 8 14 52 26 131 37 124 17 251 66 295 115 10 11 26
20 37 20 10 0 18 4 18 8 0 12 0 12 225 15 225 4 272 14 373 84 111 76 138 143
81 207 -24 28 -157 116 -175 116 -3 0 -90 43 -195 95 -340 170 -510 284 -692
467 -94 95 -138 162 -161 248 -29 106 -20 155 41 216 28 28 132 97 196 129 22
11 50 30 63 42 21 20 23 25 12 50 -11 26 -108 128 -174 183 -119 99 -330 237
-454 298 l-96 47 -79 129 c-117 189 -153 242 -259 386 -257 352 -562 691 -935
1041 l-114 107 7 41 c11 70 -8 117 -77 185 -74 74 -127 108 -267 174 -106 50
-263 112 -282 112 -5 0 -49 28 -96 62 -151 109 -173 124 -392 271 -201 134
-299 198 -342 222 -15 9 -196 117 -253 152 -11 7 -27 15 -35 20 -8 4 -36 19
-61 34 -131 76 -380 210 -574 307 -162 80 -502 242 -511 242 -2 0 -32 13 -66
29 -35 16 -108 48 -163 71 -55 23 -125 52 -155 65 -87 37 -193 79 -355 140
-82 30 -159 60 -170 64 -11 5 -49 19 -85 31 -36 11 -74 26 -85 31 -12 6 -27
11 -35 13 -21 3 -61 16 -85 26 -44 18 -389 127 -560 176 -66 19 -149 43 -185
53 -110 32 -268 73 -280 73 -3 0 -25 7 -50 14 -25 7 -56 15 -70 18 -14 2 -70
16 -125 30 -55 14 -116 28 -135 31 -80 14 -120 26 -153 45 -39 23 -157 71
-157 64 0 -3 -8 -1 -17 5 -31 16 -113 24 -263 25 -80 1 -154 5 -165 9 -11 3
-38 8 -60 12 -22 3 -67 10 -100 15 -33 5 -78 11 -100 14 -22 3 -89 13 -150 22
-147 22 -141 21 -325 40 -44 4 -83 9 -172 19 -24 3 -74 7 -113 10 -38 3 -77 8
-85 10 -8 2 -73 7 -145 11 -71 3 -150 8 -175 9 -25 2 -116 6 -203 10 -107 5
-176 13 -215 25 -48 16 -84 18 -227 15 -93 -2 -179 -6 -190 -8 -48 -11 -153
-18 -325 -22 -102 -2 -233 -7 -291 -10 -93 -5 -112 -3 -155 15 -53 23 -169 32
-259 19z m11713 -8670 c50 -12 92 -25 92 -30 0 -11 -137 0 -205 17 -99 25
-128 36 -116 43 15 10 114 -3 229 -30z"/>
</g>
</svg>
